<?xml version="1.0" encoding="utf-8"?>
<!-- Generator: Adobe Illustrator 25.4.0, SVG Export Plug-In . SVG Version: 6.00 Build 0)  -->
<svg version="1.1" id="Layer_1" xmlns="http://www.w3.org/2000/svg" xmlns:xlink="http://www.w3.org/1999/xlink" x="0px" y="0px"
	 viewBox="0 0 800 800" style="enable-background:new 0 0 800 800;" xml:space="preserve">
<style type="text/css">
	.st0{fill-rule:evenodd;clip-rule:evenodd;fill:#FFFFFF;}
</style>
<desc>Created with Sketch.</desc>
<g id="Page-1">
	<g id="Dribbble-Light-Preview" transform="translate(-340.000000, -7439.000000)">
		<g id="icons" transform="translate(56.000000, 160.000000)">
			<path id="instagram-_x5B__x23_167_x5D_" class="st0" d="M518.8,7283.9c-65.1,2.9-121.6,18.9-167.1,64.2
				c-45.7,45.6-61.5,102.3-64.4,166.7c-1.8,40.2-12.5,344.1,18.5,423.8c20.9,53.8,62.2,95.1,116.4,116.1
				c25.3,9.8,54.2,16.5,96.6,18.5c354.4,16,485.8,7.3,541.2-134.6c9.8-25.3,16.6-54.1,18.5-96.4c16.2-355.3-2.6-432.4-64.4-494.1
				C965.1,7299.3,907.4,7266,518.8,7283.9 M522,8001.7c-38.8-1.7-59.9-8.2-73.9-13.7c-35.3-13.7-61.9-40.2-75.5-75.3
				c-23.6-60.5-15.8-348.1-13.7-394.6c2.1-45.6,11.3-87.2,43.5-119.4c39.8-39.7,91.2-59.2,441.4-43.4c45.7,2.1,87.4,11.3,119.7,43.4
				c39.8,39.7,59.5,91.5,43.5,440.3c-1.8,38.7-8.2,59.7-13.7,73.7C957.2,8005,874.3,8017.9,522,8001.7 M847.6,7466.6
				c0,26.3,21.4,47.7,47.8,47.7c26.4,0,47.8-21.4,47.8-47.7c0-26.3-21.4-47.6-47.8-47.6C869,7418.9,847.6,7440.3,847.6,7466.6
				 M478.5,7678.5c0,112.6,91.5,203.9,204.4,203.9s204.4-91.3,204.4-203.9s-91.5-203.8-204.4-203.8S478.5,7565.9,478.5,7678.5
				 M550.2,7678.5c0-73,59.4-132.3,132.7-132.3c73.3,0,132.7,59.3,132.7,132.3c0,73.1-59.4,132.4-132.7,132.4
				C609.6,7810.9,550.2,7751.6,550.2,7678.5"/>
		</g>
	</g>
</g>
</svg>
