<?xml version="1.0" encoding="utf-8"?>
<!-- Generator: Adobe Illustrator 25.4.0, SVG Export Plug-In . SVG Version: 6.00 Build 0)  -->
<svg version="1.1" id="Layer_1" xmlns="http://www.w3.org/2000/svg" xmlns:xlink="http://www.w3.org/1999/xlink" x="0px" y="0px"
	 viewBox="0 0 800 800" style="enable-background:new 0 0 800 800;" xml:space="preserve">
<style type="text/css">
	.st0{fill-rule:evenodd;clip-rule:evenodd;fill:#FFFFFF;}
</style>
<desc>Created with Sketch.</desc>
<g id="Page-1">
	<g id="Dribbble-Light-Preview" transform="translate(-180.000000, -7479.000000)">
		<g id="icons" transform="translate(56.000000, 160.000000)">
			<path id="linkedin-_x5B__x23_161_x5D_" class="st0" d="M924,8119H764v-280c0-76.8-33.9-119.6-94.6-119.6
				c-66.1,0-105.4,44.6-105.4,119.6v280H404v-520h160v58.5c0,0,50.2-88.1,163.3-88.1c113.2,0,196.7,69,196.7,211.9V8119L924,8119z
				 M221.7,7515.8c-54,0-97.7-44.1-97.7-98.4c0-54.3,43.7-98.4,97.7-98.4c53.9,0,97.6,44.1,97.6,98.4
				C319.4,7471.8,275.6,7515.8,221.7,7515.8L221.7,7515.8z M124,8119h200v-520H124V8119z"/>
		</g>
	</g>
</g>
</svg>
